<svg width="823" height="192" viewBox="0 0 823 192" fill="none" xmlns="http://www.w3.org/2000/svg">
<path d="M29.5 73.5C28.3333 75.5 26 79.6 26 80L36 79L29.5 73.5Z" fill="black"/>
<path d="M10.5 58.5L7.5 67.5H21.5L10.5 58.5Z" fill="black"/>
<path d="M0 120L8.5 126L17 111.5L0 120Z" fill="black"/>
<path d="M157 117.5V191.5H190.5V140L157 117.5Z" fill="black"/>
<path d="M190.5 137L158 112.5V91L190.5 68.5H211V98H190.5V137Z" fill="black"/>
<path d="M190.5 62L158 86V0.5H190.5V62Z" fill="black"/>
<path d="M222 66.5L207 62L218 57L222 66.5Z" fill="black"/>
<path d="M225 74.5L223 83.5L234.5 88L225 74.5Z" fill="black"/>
<path d="M235.5 118L233 110.5L243 107L235.5 118Z" fill="black"/>
<path d="M247 99.5L233 76L287.5 34H238V7.5H335.5V34H324.5L306 52.5L309 55L337.5 71V74.5L330.5 88L316.5 92L287.5 71L247 99.5Z" fill="black"/>
<path d="M51 87L38.5 74.5V64L67 83.5L60 88.5L55.5 89.5L35 114L29 89.5L51 89V87Z" fill="black"/>
<path d="M144.5 146.5L37.5 154.5L39 118L55.5 96L62.5 95.5L70.5 89.5L75.5 93.5L75 83L39.5 62V13H133.5V40H71.5V68.5H131.5V96H71.5V124.5L144.5 119V146.5Z" fill="black"/>
<path d="M356 37.5H332.5V63.5H356V83.5L390.5 57V0H356V37.5Z" fill="black"/>
<path d="M392.5 60L356.5 89L392.5 86.5V60Z" fill="black"/>
<path d="M338 117.5H250.5L251 189.5L333.5 183.5L320 159L285 160.5V143H322L338 117.5Z" fill="black"/>
<path d="M356 143H325.5L341.5 118H360L390 144V191H356V179.5L340 183.5L327.5 159L356 157.5V143Z" fill="black"/>
<path d="M392.5 137.5L365 114L395 118.5L392.5 137.5Z" fill="black"/>
<path d="M406.5 126L401 118.5H413.5L406.5 126Z" fill="black"/>
<path d="M410 80.5L400.5 78L407.5 72L410 80.5Z" fill="black"/>
<path d="M447 109C439.833 109.5 425.3 110.5 424.5 110.5V106.5L444 106L447 109Z" fill="black"/>
<path d="M593.5 84.5L427 88.5V78L593.5 77.5V84.5Z" fill="black"/>
<path d="M520.5 55L509 58L520.5 50.5V55Z" fill="black"/>
<path d="M544.5 44.5L538.5 69H571.5L576 49L579 7.5H567.5L544.5 36V44.5Z" fill="black"/>
<path d="M561.5 5L541 31H438V5H561.5Z" fill="black"/>
<path d="M602.5 67.5L591 71.5L598 63L602.5 67.5Z" fill="black"/>
<path d="M522.5 110.5H491V124.5H496L522.5 110.5Z" fill="black"/>
<path d="M525.5 112L495.5 127H479L467.5 153H544V191.5H577.5V125H525.5V112Z" fill="black"/>
<path d="M475 123.5L460.5 153H439.5V123.5H475Z" fill="black"/>
<path d="M612 116L602.5 107.5H614.5L612 116Z" fill="black"/>
<path d="M618.5 116.5V102.5L634.5 108L618.5 116.5Z" fill="black"/>
<path d="M649.5 83.5H615.5L619.5 69.5L649.5 83.5Z" fill="black"/>
<path d="M678.5 79.5L673.5 76L677 72.5L678.5 79.5Z" fill="black"/>
<path d="M659.5 113.5V106L665 109.5L659.5 113.5Z" fill="black"/>
<path d="M719 122L704.5 111.5H721L719 122Z" fill="black"/>
<path d="M736.5 119L734.5 111.5H741.5L736.5 119Z" fill="black"/>
<path d="M798 134.5L795 126.5L802.5 128L798 134.5Z" fill="black"/>
<path d="M816.5 65.5L813 75.5L823 72.5L816.5 65.5Z" fill="black"/>
<path d="M776.5 132.5L750.5 109.5L780.5 113.5L776.5 132.5Z" fill="black"/>
<path d="M768 87H758.5L780 62L783 83L768 87Z" fill="black"/>
<path d="M759.5 83L752 86H757L759.5 83Z" fill="black"/>
<path d="M752 84.5H699H698V81.5L723 57.5V64.5H744.5V0.5H775.5V59L752 84.5Z" fill="black"/>
<path d="M744.5 192V113.5L776.5 139V192H744.5Z" fill="black"/>
<path d="M653 106.5L626 122.5C638.67 151.153 649.134 159.574 673.5 161C699.15 157.039 709.758 150.148 718 124.5L692.5 105.5C690.292 125.953 684.704 130.034 673 133C662.57 131.313 658.708 123.801 653 106.5Z" fill="black"/>
<path d="M654 80L624.5 65.5C620.5 32 649 7.5 674 7.5C700 7.5 715.5 29 721 55L692 76.5C689.792 56.0471 689.5 41.5 673.5 35.5C663.07 37.1874 659.708 62.6994 654 80Z" fill="black"/>
</svg>
